<svg width="68" height="66" viewBox="0 0 68 66" fill="none" xmlns="http://www.w3.org/2000/svg">
<path fill-rule="evenodd" clip-rule="evenodd" d="M21.2743 0.0507812H46.3652C57.9112 0.0507812 67.2743 9.20529 67.2743 20.4941V45.0261C67.2743 56.3149 57.9112 65.4694 46.3652 65.4694H21.2743C9.72832 65.4694 0.365234 56.3149 0.365234 45.0261V20.4941C0.365234 9.20529 9.72832 0.0507812 21.2743 0.0507812ZM46.364 59.3352C54.4349 59.3352 61.0004 52.916 61.0004 45.0249V20.4929C61.0004 12.6018 54.4349 6.1826 46.364 6.1826H21.2731C13.2022 6.1826 6.63677 12.6018 6.63677 20.4929V45.0249C6.63677 52.916 13.2022 59.3352 21.2731 59.3352H46.364Z" fill="white"/>
<path fill-rule="evenodd" clip-rule="evenodd" d="M17.0929 32.7599C17.0929 23.7281 24.5825 16.4053 33.8202 16.4053C43.0578 16.4053 50.5474 23.7281 50.5474 32.7599C50.5474 41.7918 43.0578 49.1146 33.8202 49.1146C24.5825 49.1146 17.0929 41.7918 17.0929 32.7599ZM23.3616 32.758C23.3616 38.3922 28.0536 42.9797 33.8161 42.9797C39.5787 42.9797 44.2707 38.3922 44.2707 32.758C44.2707 27.1198 39.5787 22.5364 33.8161 22.5364C28.0536 22.5364 23.3616 27.1198 23.3616 32.758Z" fill="white"/>
<ellipse cx="51.7999" cy="15.1797" rx="2.22891" ry="2.17926" fill="white"/>
</svg>
