<svg width="43" height="38" viewBox="0 0 43 38" fill="none" xmlns="http://www.w3.org/2000/svg">
<rect x="0.756104" width="42.1386" height="37.1811" rx="3.09843" fill="#0284C7"/>
<path d="M32.3332 30.4146C32.6563 30.4146 32.8178 30.4146 32.9412 30.3517C33.0497 30.2964 33.138 30.2082 33.1933 30.0996C33.2561 29.9762 33.2561 29.8147 33.2561 29.4917V17.4935C33.2561 17.1704 33.2561 17.0089 33.1933 16.8855C33.138 16.777 33.0497 16.6887 32.9412 16.6334C32.8178 16.5706 32.6563 16.5706 32.3332 16.5706L29.5644 16.5705C29.2413 16.5705 29.0798 16.5705 28.9564 16.6334C28.8479 16.6887 28.7596 16.777 28.7043 16.8855C28.6415 17.0089 28.6415 17.1704 28.6415 17.4935V20.2623C28.6415 20.5854 28.6415 20.7469 28.5786 20.8703C28.5233 20.9788 28.435 21.0671 28.3265 21.1224C28.2031 21.1852 28.0416 21.1852 27.7185 21.1852H24.9497C24.6267 21.1852 24.4651 21.1852 24.3417 21.2481C24.2332 21.3034 24.145 21.3916 24.0897 21.5002C24.0268 21.6236 24.0268 21.7851 24.0268 22.1082V24.877C24.0268 25.2 24.0268 25.3616 23.9639 25.485C23.9086 25.5935 23.8204 25.6817 23.7118 25.737C23.5884 25.7999 23.4269 25.7999 23.1038 25.7999H20.335C20.012 25.7999 19.8504 25.7999 19.7271 25.8628C19.6185 25.9181 19.5303 26.0063 19.475 26.1149C19.4121 26.2383 19.4121 26.3998 19.4121 26.7228V29.4917C19.4121 29.8147 19.4121 29.9762 19.475 30.0996C19.5303 30.2082 19.6185 30.2964 19.7271 30.3517C19.8504 30.4146 20.012 30.4146 20.335 30.4146L32.3332 30.4146Z" stroke="#FCFCFD" stroke-width="2.30734" stroke-linecap="round" stroke-linejoin="round"/>
<path d="M19.4121 12.8788C19.4121 12.5557 19.4121 12.3942 19.475 12.2708C19.5303 12.1623 19.6185 12.074 19.7271 12.0187C19.8504 11.9559 20.012 11.9559 20.335 11.9559H23.1038C23.4269 11.9559 23.5884 11.9559 23.7118 12.0187C23.8204 12.074 23.9086 12.1623 23.9639 12.2708C24.0268 12.3942 24.0268 12.5557 24.0268 12.8788V15.6476C24.0268 15.9707 24.0268 16.1322 23.9639 16.2556C23.9086 16.3641 23.8204 16.4524 23.7118 16.5077C23.5884 16.5705 23.4269 16.5705 23.1038 16.5705H20.335C20.012 16.5705 19.8504 16.5705 19.7271 16.5077C19.6185 16.4524 19.5303 16.3641 19.475 16.2556C19.4121 16.1322 19.4121 15.9707 19.4121 15.6476V12.8788Z" stroke="#FCFCFD" stroke-width="2.30734" stroke-linecap="round" stroke-linejoin="round"/>
<path d="M11.3364 19.8008C11.3364 19.4778 11.3364 19.3162 11.3993 19.1928C11.4546 19.0843 11.5428 18.9961 11.6514 18.9408C11.7748 18.8779 11.9363 18.8779 12.2593 18.8779H15.0282C15.3512 18.8779 15.5127 18.8779 15.6361 18.9408C15.7447 18.9961 15.8329 19.0843 15.8882 19.1928C15.9511 19.3162 15.9511 19.4778 15.9511 19.8008V22.5696C15.9511 22.8927 15.9511 23.0542 15.8882 23.1776C15.8329 23.2862 15.7447 23.3744 15.6361 23.4297C15.5127 23.4926 15.3512 23.4926 15.0282 23.4926H12.2593C11.9363 23.4926 11.7748 23.4926 11.6514 23.4297C11.5428 23.3744 11.4546 23.2862 11.3993 23.1776C11.3364 23.0542 11.3364 22.8927 11.3364 22.5696V19.8008Z" stroke="#FCFCFD" stroke-width="2.30734" stroke-linecap="round" stroke-linejoin="round"/>
<path d="M10.1827 8.26412C10.1827 7.94106 10.1827 7.77954 10.2456 7.65614C10.3009 7.54761 10.3892 7.45936 10.4977 7.40406C10.6211 7.34119 10.7826 7.34119 11.1057 7.34119H13.8745C14.1975 7.34119 14.3591 7.34119 14.4825 7.40406C14.591 7.45936 14.6792 7.54761 14.7345 7.65614C14.7974 7.77954 14.7974 7.94106 14.7974 8.26412V11.0329C14.7974 11.356 14.7974 11.5175 14.7345 11.6409C14.6792 11.7494 14.591 11.8377 14.4825 11.893C14.3591 11.9559 14.1975 11.9559 13.8745 11.9559H11.1057C10.7826 11.9559 10.6211 11.9559 10.4977 11.893C10.3892 11.8377 10.3009 11.7494 10.2456 11.6409C10.1827 11.5175 10.1827 11.356 10.1827 11.0329V8.26412Z" stroke="#FCFCFD" stroke-width="2.30734" stroke-linecap="round" stroke-linejoin="round"/>
</svg>
