<svg width="68" height="55" viewBox="0 0 68 55" fill="none" xmlns="http://www.w3.org/2000/svg">
<path d="M67.7091 7.29074C65.2209 8.35788 62.5696 9.06522 59.8055 9.40867C62.6491 7.74867 64.8194 5.1401 65.8398 1.99592C63.1885 3.54144 60.2613 4.63311 57.1416 5.24232C54.6242 2.62149 51.0362 0.998291 47.122 0.998291C39.5278 0.998291 33.414 7.02498 33.414 14.4132C33.414 15.4762 33.506 16.4984 33.7318 17.4715C22.328 16.9277 12.2373 11.5838 5.45859 3.44331C4.27514 5.45084 3.58096 7.74867 3.58096 10.2223C3.58096 14.867 6.02732 18.9843 9.67386 21.368C7.47004 21.3271 5.30804 20.7015 3.47641 19.7162C3.47641 19.7571 3.47641 19.8102 3.47641 19.8634C3.47641 26.3807 8.23113 31.7941 14.4662 33.0411C13.3497 33.3396 12.1328 33.4827 10.8699 33.4827C9.99168 33.4827 9.10513 33.4336 8.27295 33.2537C10.0502 38.5649 15.0935 42.4696 21.0902 42.5963C16.4233 46.1657 10.4977 48.3164 4.08277 48.3164C2.95786 48.3164 1.87896 48.2673 0.800049 48.1324C6.87622 51.9635 14.0773 54.1509 21.8429 54.1509C47.0844 54.1509 60.8844 33.7076 60.8844 15.9873C60.8844 15.3945 60.8634 14.8221 60.8342 14.2537C63.5565 12.3648 65.844 10.0056 67.7091 7.29074Z" fill="white"/>
</svg>
