<svg width="43" height="38" viewBox="0 0 43 38" fill="none" xmlns="http://www.w3.org/2000/svg">
<rect x="0.397217" y="0.287598" width="42.1386" height="37.1811" rx="3.09843" fill="#38BDF8"/>
<path d="M21.7564 9.38489V14.3292M21.7564 9.38489C21.0511 9.38489 20.363 9.45873 19.6995 9.59911M21.7564 9.38489C22.4617 9.38489 23.1498 9.45873 23.8133 9.59911M21.7564 14.3292C19.0257 14.3292 16.8121 16.5428 16.8121 19.2735M21.7564 14.3292C24.487 14.3292 26.7007 16.5428 26.7007 19.2735M21.7564 24.2178V29.1621M21.7564 24.2178C24.487 24.2178 26.7007 22.0042 26.7007 19.2735M21.7564 24.2178C19.0257 24.2178 16.8121 22.0042 16.8121 19.2735M21.7564 29.1621C22.4606 29.1621 23.1477 29.0885 23.8103 28.9485M21.7564 29.1621C21.0495 29.1621 20.3599 29.0879 19.6951 28.9469M14.7641 12.2812L18.2602 15.7773M25.2525 22.7696L28.7487 26.2658M11.8678 19.2735H16.8121M11.8678 19.2735C11.8678 19.9789 11.9416 20.667 12.082 21.3305M11.8678 19.2735C11.8678 18.5671 11.9418 17.878 12.0826 17.2135M26.7007 19.2735H31.645M31.645 19.2735C31.645 18.5681 31.5711 17.88 31.4307 17.2164M31.645 19.2735C31.645 19.9786 31.5712 20.6664 31.4309 21.3298M14.7641 26.2658L18.2602 22.7696M25.2525 15.7773L28.7487 12.2812M27.1424 10.979C28.3036 11.7346 29.2963 12.7275 30.0517 13.8888M30.049 24.6623C29.2934 25.8226 28.301 26.8145 27.1402 27.5694M16.3708 27.5682C15.2112 26.8138 14.2196 25.8227 13.4646 24.6636M13.4616 13.888C14.2168 12.7272 15.2091 11.7347 16.3698 10.9794" stroke="#FCFCFD" stroke-width="1.97772" stroke-linecap="round" stroke-linejoin="round"/>
</svg>
